<?xml version="1.0" encoding="utf-8"?>
<!-- Generator: Adobe Illustrator 26.2.1, SVG Export Plug-In . SVG Version: 6.00 Build 0)  -->
<svg version="1.1" id="Layer_1" xmlns="http://www.w3.org/2000/svg" xmlns:xlink="http://www.w3.org/1999/xlink" x="0px" y="0px"
	 viewBox="0 0 48 32" style="enable-background:new 0 0 48 32;" xml:space="preserve">
<style type="text/css">
	.st0{fill:#3088BF;}
</style>
<g id="Layer_2_00000181771224137030036520000001258411817254083767_">
	<g id="Icons">
		<path class="st0" d="M12.2,17.8c0.2-1.4,0.7-2.7,1.4-3.8c0.4-0.6,0.8-1.2,1.3-1.8c0.2-0.2,0.3-0.4,0.5-0.6
			C13.8,10.6,11.9,10,10,10C4.5,10,0,14.5,0,20c0,3.5,1.9,6.8,5,8.6V30c0,1.1,0.9,2,2,2h6c1.1,0,2-0.9,2-2v-2.1
			c-0.5-0.6-1-1.2-1.4-1.9C12.2,23.5,11.7,20.6,12.2,17.8z M3,20c0-1.8,0.7-3.6,2-4.9v9.8C3.7,23.6,3,21.8,3,20z"/>
		<circle class="st0" cx="10" cy="4" r="4"/>
		<circle class="st0" cx="38" cy="4" r="4"/>
		<path class="st0" d="M38,10c-1.9,0-3.8,0.6-5.4,1.6c0.2,0.2,0.4,0.4,0.5,0.6c0.5,0.6,0.9,1.1,1.3,1.8c2.1,3.7,2.1,8.3,0,12
			c-0.4,0.7-0.9,1.3-1.4,1.9V30c0,1.1,0.9,2,2,2h6c1.1,0,2-0.9,2-2v-1.4c4.8-2.8,6.4-8.9,3.6-13.7C44.8,11.9,41.5,10,38,10z
			 M43,24.9v-9.8C45.7,17.8,45.7,22.2,43,24.9z"/>
		<circle class="st0" cx="24" cy="4" r="4"/>
		<path class="st0" d="M34,20c0-1.5-0.3-3-1-4.3l-0.2-0.4c-0.5-0.9-1.1-1.7-1.8-2.4C29.1,11,26.6,10,24,10c-0.6,0-1.3,0.1-1.9,0.2
			c-1.9,0.4-3.7,1.3-5.1,2.7c-0.7,0.7-1.3,1.5-1.8,2.4c-0.1,0.1-0.1,0.2-0.2,0.4c-0.4,0.8-0.7,1.7-0.8,2.5c-0.4,2.1-0.1,4.2,0.8,6.2
			c0.1,0.1,0.1,0.2,0.2,0.4c0.9,1.6,2.2,3,3.8,3.9v0.5c0,0,0,0.1,0,0.1s0,0,0,0.1V30c0,1.1,0.9,2,2,2h6c1.1,0,2-0.9,2-2v-0.7
			c0,0,0,0,0-0.1s0-0.1,0-0.1v-0.5c0.7-0.4,1.4-0.9,2-1.5c0.7-0.7,1.3-1.5,1.8-2.4c0.1-0.1,0.1-0.2,0.2-0.4C33.7,23,34,21.5,34,20z
			 M19,24.9c-0.1-0.1-0.1-0.1-0.2-0.2c-1.1-1.2-1.7-2.7-1.8-4.3c0-0.2,0-0.5,0-0.7c0.1-1.6,0.7-3.2,1.8-4.4c0-0.1,0.1-0.1,0.2-0.2
			V24.9z M29.2,24.7c-0.1,0.1-0.1,0.1-0.2,0.2v-9.8c0.1,0.1,0.1,0.1,0.2,0.2c1.1,1.2,1.8,2.8,1.8,4.4c0,0.2,0,0.4,0,0.5
			C30.9,21.9,30.3,23.5,29.2,24.7L29.2,24.7z"/>
	</g>
</g>
</svg>
