<?xml version="1.0" encoding="utf-8"?>
<!-- Generator: Adobe Illustrator 26.2.1, SVG Export Plug-In . SVG Version: 6.00 Build 0)  -->
<svg version="1.1" id="Layer_1" xmlns="http://www.w3.org/2000/svg" xmlns:xlink="http://www.w3.org/1999/xlink" x="0px" y="0px"
	 viewBox="0 0 48 36.9" style="enable-background:new 0 0 48 36.9;" xml:space="preserve">
<style type="text/css">
	.st0{fill:#3088BF;}
</style>
<g id="Layer_2_00000031927192608292640660000012360234763161819788_">
	<g id="Icons">
		<path class="st0" d="M47,22.9H1c-0.6,0-1,0.4-1,1c0,7.2,5.8,13,13,13h22c7.2,0,13-5.8,13-13C48,23.3,47.6,22.9,47,22.9z"/>
		<path class="st0" d="M20.9,12.1l-2.5-0.7c-2.7-0.7-5.4,0.9-6.1,3.6c0,0,0,0,0,0l-0.2,0.7l2.5,0.7c2.7,0.7,5.4-0.9,6.1-3.5
			L20.9,12.1z"/>
		<path class="st0" d="M20.3,17.8l2.5,0.7c2.7,0.7,5.4-0.9,6.1-3.5l0.2-0.7l-2.5-0.7c-2.7-0.7-5.4,0.9-6.1,3.5L20.3,17.8z"/>
		<path class="st0" d="M28.6,20l2.5,0.7c2.7,0.7,5.4-0.9,6.1-3.5c0,0,0,0,0,0l0.2-0.7l-2.5-0.7c-2.7-0.7-5.4,0.9-6.1,3.5L28.6,20z"
			/>
		<path class="st0" d="M19.1,8.7l2.5,0.7l0.2-0.7c0.7-2.7-0.9-5.4-3.5-6.1c0,0,0,0,0,0l-2.5-0.7l-0.2,0.6
			C14.9,5.2,16.5,7.9,19.1,8.7C19.1,8.7,19.1,8.7,19.1,8.7z"/>
		<path class="st0" d="M27.4,10.9l2.5,0.7l0.2-0.7c0.7-2.7-0.9-5.4-3.5-6.1L24,4.1l-0.2,0.7C23.1,7.4,24.7,10.2,27.4,10.9
			C27.4,10.9,27.4,10.9,27.4,10.9z"/>
		<path class="st0" d="M35.6,13.1l2.5,0.7l0.2-0.7c0.7-2.7-0.9-5.4-3.5-6.1l-2.5-0.7L32.1,7C31.4,9.7,33,12.4,35.6,13.1z"/>
		<path class="st0" d="M46,17.3c0.2-0.8-0.2-1.5-1-1.7l-5-1.3L39.2,17l5,1.4c0.7,0.2,1.5-0.2,1.8-0.9C46,17.4,46,17.4,46,17.3z"/>
		<path class="st0" d="M6,11c-0.8-0.2-1.5,0.2-1.7,1s0.2,1.5,1,1.7l3.7,1c0.8,0.2,1.5-0.3,1.7-1c0.2-0.8-0.3-1.5-1-1.7L6,11z"/>
		<path class="st0" d="M8.2,2.8l3.7,1c0.8,0.2,1.5-0.2,1.7-1c0,0,0,0,0,0c0.2-0.8-0.2-1.5-1-1.7l-3.7-1C8.2-0.2,7.4,0.3,7.2,1
			C7,1.8,7.4,2.6,8.2,2.8C8.2,2.8,8.2,2.8,8.2,2.8z"/>
		<path class="st0" d="M3,7.3L13.1,10c0.8,0.2,1.5-0.2,1.7-1s-0.2-1.5-1-1.7L3.8,4.6C3,4.4,2.3,4.8,2.1,5.5c0,0,0,0,0,0
			C1.8,6.3,2.3,7.1,3,7.3z"/>
	</g>
</g>
</svg>
