<?xml version="1.0" encoding="utf-8"?>
<!-- Generator: Adobe Illustrator 26.2.1, SVG Export Plug-In . SVG Version: 6.00 Build 0)  -->
<svg version="1.1" id="Layer_1" xmlns="http://www.w3.org/2000/svg" xmlns:xlink="http://www.w3.org/1999/xlink" x="0px" y="0px"
	 viewBox="0 0 34 48" style="enable-background:new 0 0 34 48;" xml:space="preserve">
<style type="text/css">
	.st0{fill:#3088BF;}
</style>
<g id="Layer_2_00000067925639364773573940000015405987944768051091_">
	<g id="Icons">
		<path class="st0" d="M21,3c0-1.7-1.3-3-3-3s-3,1.3-3,3v3h6V3z"/>
		<path class="st0" d="M15,26h6v-2h5c4.4,0,8-3.6,8-8s-3.6-8-8-8H11.6C10.9,7.4,10,7,9,7H4c-2.2,0-4,1.8-4,4s1.8,4,4,4h5
			c1,0,1.9-0.4,2.6-1H26c1.1,0,2,0.9,2,2s-0.9,2-2,2h-5v-2h-6v2h-3c-4.4,0-8,3.6-8,8s3.6,8,8,8h10c1.1,0,2,0.9,2,2s-0.9,2-2,2h-1v-2
			h-6v2h-2c-1.7,0-3,1.3-3,3s1.3,3,3,3h2v1c0,0.3,0.1,0.7,0.2,1c0,0.1,0.1,0.3,0.2,0.4c0,0.1,0.1,0.1,0.1,0.2l0.1,0.2
			c0.3,0.5,0.8,0.8,1.4,1c0.1,0,0.1,0.1,0.2,0.1l0.2,0.1c0.1,0,0.1,0,0.2,0c0.3,0.1,0.7,0.1,1,0c0.1,0,0.1,0,0.2,0
			c0.7-0.2,1.3-0.6,1.7-1.2l0.1-0.2c0-0.1,0.1-0.1,0.1-0.2c0.1-0.1,0.1-0.3,0.2-0.4c0.1-0.3,0.2-0.6,0.2-1v-1h1c4.4,0,8-3.6,8-8
			s-3.6-8-8-8H12c-1.1,0-2-0.9-2-2s0.9-2,2-2h3V26z M4,11c-0.6,0-1-0.4-1-1s0.4-1,1-1s1,0.4,1,1S4.6,11,4,11z"/>
	</g>
</g>
</svg>
