<?xml version="1.0" encoding="utf-8"?>
<!-- Generator: Adobe Illustrator 26.2.1, SVG Export Plug-In . SVG Version: 6.00 Build 0)  -->
<svg version="1.1" id="Layer_1" xmlns="http://www.w3.org/2000/svg" xmlns:xlink="http://www.w3.org/1999/xlink" x="0px" y="0px"
	 viewBox="0 0 100 90" style="enable-background:new 0 0 100 90;" xml:space="preserve">
<style type="text/css">
	.st0{fill:#3088BF;}
</style>
<g id="المنجزات">
	<path class="st0" d="M42,37.5c-1-1.6-1.8-3.2-2.4-5v25.7l8.3-14.2C45.6,42.2,43.6,40,42,37.5z"/>
	<path class="st0" d="M62.4,5.4C51.7,5.4,43.1,14,43,24.7c0,1.5,0.2,3,0.5,4.5v0.1c0,0.2,0.1,0.3,0.1,0.5v0.1c0.2,0.7,0.4,1.3,0.7,2
		v0.1c0.1,0.1,0.1,0.3,0.2,0.4c0,0,0,0.1,0,0.1c0.1,0.1,0.1,0.3,0.2,0.4v0.1c0.2,0.5,0.4,0.9,0.7,1.3c0,0,0,0.1,0,0.1l0.2,0.4
		c0,0.1,0.1,0.1,0.1,0.2l0.2,0.3l0.1,0.2l0.2,0.3l0.2,0.2l0.4,0.6l0.1,0.1l0.2,0.3l0.2,0.2l0.2,0.2c0.1,0.1,0.1,0.1,0.2,0.2l0.2,0.2
		l0.2,0.2c0.1,0.1,0.1,0.2,0.2,0.2l0.3,0.3l0.2,0.2l0.3,0.3l0.2,0.2l0.3,0.2l0.2,0.2l0.3,0.2l0.2,0.2c0.1,0.1,0.2,0.2,0.3,0.3
		l0.1,0.1l0.5,0.4l0.1,0.1l0.4,0.2l0.2,0.1l0.3,0.2l0.2,0.1l0.4,0.2l0.2,0.1l0.6,0.3l3.4,5.2l2.9,4.5l0.3,0.5c0.3,0.5,0.7,0.8,1.3,1
		c1,0.3,2.1-0.1,2.7-1l0.4-0.6l0.2-0.3l2.7-4.1l3.5-5.2l0.6-0.3l0.2-0.1l0.4-0.2l0.2-0.1c0.1-0.1,0.2-0.1,0.3-0.2l0.2-0.1l0.4-0.2
		l0.2-0.1l0.5-0.4l0.1-0.1l0.4-0.3l0.2-0.2l0.3-0.2l0.2-0.2l0.3-0.2l0.2-0.2c0.1-0.1,0.2-0.1,0.2-0.2l0.2-0.2l0.4-0.4l0.2-0.2
		l0.2-0.2l0.2-0.3l0.2-0.2l0.2-0.3l0.1-0.2l0.2-0.3l0.1-0.1c0.3-0.4,0.6-0.8,0.8-1.2c0,0,0-0.1,0-0.1l0.2-0.4l0.1-0.1l0.2-0.4
		c0,0,0,0,0-0.1c0.3-0.6,0.7-1.3,0.9-1.9l0,0c0.1-0.2,0.1-0.3,0.2-0.5l0,0c0.4-1,0.7-2.1,0.9-3.2l0,0c0.3-1.2,0.4-2.5,0.4-3.8
		C81.7,14.2,73.1,5.5,62.4,5.4z M63.1,35.3c-5.8,0.4-10.8-4-11.2-9.8s4-10.8,9.8-11.2c5.8-0.4,10.8,4,11.2,9.8c0,0.5,0,0.9,0,1.4
		C72.6,30.7,68.4,34.9,63.1,35.3z"/>
	<path class="st0" d="M88.6,30.3L86,29.6c-1.4,6.8-5.7,12.6-11.7,16l-3.6,5.5l8.3,10.2h11.3V32.6C90.4,31.5,89.7,30.6,88.6,30.3z"/>
	<path class="st0" d="M12.5,24.1c-1.2-0.3-2.5,0.5-2.8,1.7c0,0.2-0.1,0.4-0.1,0.6v22.5H22c0.6,0,1.2,0.3,1.7,0.7L35,61.1V29.6
		L12.5,24.1z"/>
	<path class="st0" d="M56.6,54.9l-4.9-7.6h-0.3L39.6,67.4v16.7l20.5-5V57.7C58.6,57.2,57.4,56.2,56.6,54.9z"/>
	<path class="st0" d="M78,66c-0.7,0-1.4-0.3-1.8-0.8l-8.1-9.9c-0.8,1.1-2,2-3.3,2.5V79l22.8,5.6c0.2,0,0.4,0.1,0.6,0.1
		c0.8,0,1.6-0.4,2-1.1c0.2-0.4,0.3-0.8,0.3-1.2V66H78z"/>
	<path class="st0" d="M21,53.5H9.6v22.5c0,1.1,0.7,2,1.8,2.3L35,84.1V67.7L21,53.5z"/>
</g>
</svg>
