<?xml version="1.0" encoding="utf-8"?>
<!-- Generator: Adobe Illustrator 26.2.1, SVG Export Plug-In . SVG Version: 6.00 Build 0)  -->
<svg version="1.1" id="Layer_1" xmlns="http://www.w3.org/2000/svg" xmlns:xlink="http://www.w3.org/1999/xlink" x="0px" y="0px"
	 viewBox="0 0 73 81" style="enable-background:new 0 0 73 81;" xml:space="preserve">
<style type="text/css">
	.st0{fill:#3088BF;}
</style>
<g>
	<defs>
		<rect id="SVGID_1_" x="188" y="-519" width="414" height="972"/>
	</defs>
	<use xlink:href="#SVGID_1_"  style="overflow:visible;fill:#3088BF;"/>
	<clipPath id="SVGID_00000163792740213438077470000013670173485158740885_">
		<use xlink:href="#SVGID_1_"  style="overflow:visible;"/>
	</clipPath>
</g>
<path class="st0" d="M22.2,54.7c0-0.4-0.1-0.8-0.1-1.2c0-6.9,0-13.8,0-20.8c0-2,0.7-4,1.9-5.6l6.1,4.1c1.6,1.1,3.2,2.1,4.8,3.2
	c0.4,0.3,0.7,0.8,0.7,1.4c0.1,2.2,0.1,4.4,0,6.6c-0.1,0.5-0.3,1-0.7,1.3c-1.3,1-1.6,2.8-0.6,4.1c0.1,0.1,0.1,0.2,0.2,0.2
	c1.1,1.2,2.9,1.3,4,0.2c0.1-0.1,0.2-0.1,0.2-0.2c1.1-1.2,1-3.1-0.2-4.1c-0.1-0.1-0.2-0.1-0.3-0.2c-0.4-0.3-0.6-0.8-0.6-1.3
	c-0.1-2.2,0-4.4,0-6.6c0-0.5,0.2-0.9,0.5-1.2c3.6-2.5,7.3-4.9,11-7.4c1.4,1.6,2.1,3.6,2,5.7c0,4.3,0,8.7,0,13c0,2.6,0,5.2,0,7.8
	c0,0.7-0.1,1.2-1,1.2c-9.1,0-18.3,0-27.4,0C22.6,54.8,22.4,54.8,22.2,54.7z"/>
<path class="st0" d="M47.3,78.2h-9.5c0-0.5-0.1-1-0.1-1.5c0-4.6,0-9.3,0-13.9c0.1-0.4,0-0.7,0-1.1c-0.2-0.4-0.6-0.9-0.9-0.9
	c-0.3,0-0.7,0.5-0.9,0.9c-0.1,0.3-0.1,0.7-0.1,1.1c0,4.6,0,9.2,0,13.8v1.6h-9.6V56.9h21.2L47.3,78.2z"/>
<path class="st0" d="M49.3,60.6v-3.8c0.6,0,1.1,0,1.6,0c2.1,0,2.2-0.1,2.2-2.3c0-5.6,0-11.2,0-16.7v-4.4c3.6,0,7.2,0.2,10.8,0.5
	c3.7,0.5,6.6,4.3,6.7,8.1c0.1,6,0,12,0,18.1c0,0.2-0.1,0.4-0.1,0.6H49.3z M63,47.1c-0.9-0.1-1.9,0-2.8,0c-0.4,0.1-1.1,0.5-1.1,0.8
	c-0.1,2-0.1,4,0.2,6c0.4,1.8,2.2,3,4,2.8c1.9-0.2,3.4-1.7,3.5-3.6c0-0.8,0-1.5,0-2.3C66.7,47.1,66.7,47.1,63,47.1z"/>
<path class="st0" d="M2.8,60.6c0-0.5-0.1-0.9-0.1-1.3c0-5.4,0-10.9,0-16.3c0-5.6,3.8-9.4,9.4-9.5c2.6,0,5.2,0,8,0c0,0.6,0,1.1,0,1.5
	c0,6.5,0,13,0,19.6c0,2.2,0.1,2.2,2.3,2.2c0.5,0,1,0,1.6,0v3.8L2.8,60.6z M10.6,47.1c-0.9,0-1.8,0-2.7,0c-0.9,0-1.3,0.4-1.3,1.3
	c0,1.4,0,2.9,0,4.3c-0.1,2.1,1.5,4,3.6,4.1c0.1,0,0.1,0,0.2,0c2.2,0,3.9-1.8,3.9-4c0,0,0,0,0-0.1c0-1.4,0-2.8,0-4.1
	c0-1.1-0.5-1.5-1.6-1.5C12.1,47.2,11.3,47.1,10.6,47.1z"/>
<path class="st0" d="M24,62.7v15.4h-7.6c0-0.4-0.1-0.7-0.1-1.1c0-3,0-6,0-9c0-0.7,0-1.5-0.9-1.5c-0.9,0-0.9,0.8-0.9,1.4
	c0,3.3,0,6.7,0,10.1H6.2V62.7H24z"/>
<path class="st0" d="M67.1,62.7v15.4H59v-3c0-2.3,0-4.6,0-7c0-0.7,0-1.6-1-1.5c-1,0-1,0.9-1,1.6c0,2.8,0,5.6,0,8.4c0,0.5,0,1,0,1.5
	h-7.7V62.7H67.1z"/>
<path class="st0" d="M29.9,9.3c0-3.7,3-6.8,6.7-6.9c3.7,0,6.8,3,6.9,6.7c0.1,3.7-2.9,6.9-6.6,6.9c-3.7,0.1-6.9-2.9-6.9-6.6
	C29.9,9.4,29.9,9.3,29.9,9.3z"/>
<path class="st0" d="M47.9,25.8c-3.7,2.5-7.2,4.8-10.8,7.2c-0.3,0.1-0.6,0.1-0.8,0c-3.6-2.3-7.1-4.7-10.8-7.2c1.3-1.2,3-1.9,4.8-2
	c4.2-0.1,8.5-0.1,12.7,0C44.8,23.9,46.5,24.6,47.9,25.8z"/>
<path class="st0" d="M20.1,20c0,3.2-2.7,5.8-5.9,5.8s-5.8-2.7-5.8-5.9c0.1-3.2,2.6-5.7,5.8-5.8C17.6,14.1,20.2,16.7,20.1,20
	C20.1,19.9,20.1,19.9,20.1,20z"/>
<path class="st0" d="M64.8,19.9c0,3.2-2.7,5.7-5.8,5.7s-5.7-2.7-5.7-5.8c0-3.2,2.6-5.7,5.8-5.7C62.2,14.1,64.8,16.7,64.8,19.9z"/>
<path class="st0" d="M38,46.1c-0.6,0.5-0.9,1-1.3,0.9c-0.3,0-0.7-0.5-1-0.8c0.3-0.4,0.6-0.9,1-1C37,45.1,37.4,45.7,38,46.1z"/>
<path class="st0" d="M61,49.1h3.8c0,1.5,0.1,2.9,0,4.3c-0.1,0.9-0.9,1.6-1.8,1.5c0,0-0.1,0-0.1,0c-0.9,0-1.7-0.7-1.8-1.6
	c0,0,0,0,0,0C60.9,51.9,61,50.5,61,49.1z"/>
<path class="st0" d="M8.5,49.1h3.9c0,1.4,0.1,2.6,0,3.9c0,1-0.8,1.8-1.8,1.8c-0.1,0-0.1,0-0.2,0c-1,0-1.8-0.7-1.9-1.7
	c0,0,0-0.1,0-0.1C8.5,51.7,8.5,50.5,8.5,49.1z"/>
</svg>
