<svg id="Layer_1" data-name="Layer 1" xmlns="http://www.w3.org/2000/svg" viewBox="0 0 500 500"><defs><style>.cls-1{fill:#444;}</style></defs><path class="cls-1" d="M154.58,361.43c-5.44,0-10.53,0-15.61,0-24.32-.26-43.42-16.39-47.65-40.35a52.3,52.3,0,0,1-.54-8.95q0-62.52,0-125c0-28.54,20.58-49.13,49.08-49.15q110.61-.08,221.23,0c28.27,0,48.9,20.62,49,48.88q.12,62.72,0,125.42c0,28.66-20.67,49.14-49.44,49.18q-56.16.06-112.3,0a23.84,23.84,0,0,0-15.23,5.06c-17.26,13.15-34.66,26.13-52.06,39.1-7.65,5.71-16.7,5-22.53-1.69a16,16,0,0,1-3.91-11c0-9.11,0-18.22,0-27.33Zm32,0c9.63-7.21,18.53-13.63,27.14-20.4,10.13-8,21.43-11.59,34.33-11.51,37.43.22,74.86.09,112.29.07,11.38,0,17.88-6.51,17.89-17.91q0-62.13,0-124.28c0-11.12-6.59-17.66-17.75-17.66q-110,0-220.08,0c-11.34,0-17.81,6.54-17.82,18q0,62,0,123.91c0,11.4,6.51,17.94,17.82,18,9.11,0,18.24.39,27.32-.09,12.58-.65,19.58,8,18.9,18.8C186.37,352.37,186.58,356.46,186.58,361.44Z"/><path class="cls-1" d="M266.28,249.82a15.88,15.88,0,1,1-15.72-16A15.7,15.7,0,0,1,266.28,249.82Z"/><path class="cls-1" d="M186.47,265.56a15.89,15.89,0,1,1,16-15.85A15.93,15.93,0,0,1,186.47,265.56Z"/><path class="cls-1" d="M314.19,265.56a15.89,15.89,0,1,1,16.1-15.79A15.87,15.87,0,0,1,314.19,265.56Z"/></svg>