<?xml version="1.0" encoding="utf-8"?>
<!-- Generator: Adobe Illustrator 26.2.1, SVG Export Plug-In . SVG Version: 6.00 Build 0)  -->
<svg version="1.1" id="Layer_1" xmlns="http://www.w3.org/2000/svg" xmlns:xlink="http://www.w3.org/1999/xlink" x="0px" y="0px"
	 viewBox="0 0 91 77" style="enable-background:new 0 0 91 77;" xml:space="preserve">
<style type="text/css">
	.st0{fill:#3088BF;}
</style>
<g>
	<defs>
		<rect id="SVGID_1_" x="197" y="-24" width="414" height="972"/>
	</defs>
	<use xlink:href="#SVGID_1_"  style="overflow:visible;fill:#3088BF;"/>
	<clipPath id="SVGID_00000057150671633589915810000013520987344809712027_">
		<use xlink:href="#SVGID_1_"  style="overflow:visible;"/>
	</clipPath>
</g>
<path class="st0" d="M90.8,70.2c-0.2,0.6-0.3,1.1-0.5,1.7c-1.1,3-3.9,5-7.1,5.1c-3.7,0-7.5,0-11.2,0c-0.1,0-0.2,0-0.2,0
	c0-2.7,0.1-5.3,0.1-7.9c0-6,0-11.9,0-17.9c0-3.2,0.1-6.4-1.1-9.4c0.1-0.1,0.1-0.2,0.2-0.2c3.1,0.1,6.2-0.2,9.2,0.3
	c5.5,0.9,9.8,5.3,10.6,10.8c0,0.2,0.1,0.3,0.2,0.5V70.2z"/>
<path class="st0" d="M45.5,77H27.5c-2.1,0-3.1-1-3.1-3.1c0-8.6,0-17.2,0-25.8C24.2,41,29.9,35,37,34.8c0.2,0,0.4,0,0.7,0
	c5.2,0,10.4,0,15.6,0c7.2-0.2,13.1,5.5,13.3,12.7c0,0.2,0,0.4,0,0.6c0,8.6,0,17.2,0,25.8c0,2.1-1,3.1-3.1,3.1L45.5,77z"/>
<path class="st0" d="M45.5,31.6c-8.7,0-15.7-7-15.7-15.7c0-8.7,7-15.7,15.7-15.7c8.7,0,15.7,7,15.7,15.7
	C61.2,24.5,54.2,31.5,45.5,31.6z"/>
<path class="st0" d="M20.2,41.6c-1.6,4.3-1.1,8.6-1.1,12.9c-0.1,5.6,0,11.3,0,16.9c0,1.8,0.1,3.6,0.2,5.6H8.2
	c-4.3,0.1-7.9-3.3-8-7.7c0-0.1,0-0.2,0-0.3c0-4.7,0-9.5,0-14.2c-0.1-7.1,5.5-13,12.6-13.2C15.2,41.5,17.6,41.6,20.2,41.6z"/>
<path class="st0" d="M29.6,26.6c0,6.5-5.3,11.8-11.8,11.7S6,33,6.1,26.5c0-6.5,5.3-11.8,11.8-11.7c0,0,0.1,0,0.1,0
	C24.4,14.9,29.6,20.1,29.6,26.6z"/>
<path class="st0" d="M84.9,26.6c-0.1,6.5-5.4,11.7-11.9,11.7s-11.7-5.4-11.7-11.9s5.4-11.7,11.9-11.7c0.1,0,0.1,0,0.2,0
	C79.8,14.9,84.9,20.2,84.9,26.6z"/>
</svg>
