<?xml version="1.0" encoding="utf-8"?>
<!-- Generator: Adobe Illustrator 26.2.1, SVG Export Plug-In . SVG Version: 6.00 Build 0)  -->
<svg version="1.1" id="Layer_1" xmlns="http://www.w3.org/2000/svg" xmlns:xlink="http://www.w3.org/1999/xlink" x="0px" y="0px"
	 viewBox="0 0 48 48" style="enable-background:new 0 0 48 48;" xml:space="preserve">
<style type="text/css">
	.st0{fill:#3088BF;}
</style>
<g id="Layer_2_00000075878447366368747930000010743782274476955528_">
	<g id="Icons">
		<path class="st0" d="M28.8,28.1l7.6-7.5c0.8-0.8,2.1-0.9,2.9-0.1c0,0,0.1,0.1,0.1,0.1c0.8,0.8,0.8,2.2,0,3l-3.8,3.6
			c-0.5,0.5-0.5,1.3,0,1.8c0.5,0.5,1.2,0.5,1.7,0c0,0,0,0,0,0l4.6-5V8c0-1.7,1.3-3,3-3s3,1.3,3,3v17.4c0,0.8-0.3,1.6-0.9,2.1L36,39
			v9h-9V33C26.9,31.2,27.6,29.4,28.8,28.1z"/>
		<path class="st0" d="M19.2,28.1l-7.6-7.5c-0.8-0.8-2.1-0.9-2.9-0.1c0,0-0.1,0.1-0.1,0.1c-0.8,0.8-0.8,2.2,0,3l3.8,3.6
			c0.5,0.5,0.5,1.3,0,1.8c-0.5,0.5-1.2,0.5-1.7,0c0,0,0,0,0,0L6,24V8c0-1.7-1.3-3-3-3S0,6.3,0,8v17.4c0,0.8,0.3,1.6,0.9,2.1L12,39v9
			h9V33C21.1,31.2,20.4,29.4,19.2,28.1z"/>
		<circle class="st0" cx="24" cy="9" r="9"/>
	</g>
</g>
</svg>
