<?xml version="1.0" encoding="utf-8"?>
<!-- Generator: Adobe Illustrator 26.2.1, SVG Export Plug-In . SVG Version: 6.00 Build 0)  -->
<svg version="1.1" id="Layer_1" xmlns="http://www.w3.org/2000/svg" xmlns:xlink="http://www.w3.org/1999/xlink" x="0px" y="0px"
	 viewBox="0 0 150 80" style="enable-background:new 0 0 150 80;" xml:space="preserve">
<style type="text/css">
	.st0{fill:#3088BF;}
</style>
<path class="st0" d="M148.3,67.8c-1.5,2.8-3.1,5.6-4.5,8.4c-2.6,5-1.6,4-6.7,4.1c-9.6,0.1-19.2,0-28.8,0h-1.9V14.4
	c7.9,21.4,17.5,41.9,33,59.2c1.3-2.5,2.5-4.8,3.7-7.1c1.4-2.8,3.3-2.9,5.2-0.5L148.3,67.8z"/>
<path class="st0" d="M63.9,75.8c-1-3.1-1.9-6-2.8-8.9c-0.2-1-1.2-1.6-2.2-1.4c0,0-0.1,0-0.1,0c-1,0.2-1.7,1.1-1.5,2.1c0,0,0,0,0,0
	c0.1,0.4,0.2,0.8,0.3,1.2c1,3.2,2,6.5,3,9.7c0.1,0.4,0.3,0.9,0.4,1.5h-1.8c-17.2,0-34.3,0-51.5,0c-1.4,0.1-2.7-0.8-3-2.1
	c-1-3-2.1-5.9-3.1-8.9c-0.6-1.7,0-3,1.5-3.5c1.4-0.5,2.6,0.2,3.2,1.9c0.7,2,1.4,3.9,2.2,6.2c1.7-1.9,3.4-3.6,4.8-5.3
	c6.1-7.6,11.2-15.9,15.2-24.7C33,34.1,36.9,24.3,41,14.6c0.4-1,0.5-2,0.5-3.1c0.1-2.8,0-5.6,0-8.5c0-1.7,0.9-2.8,2.4-2.8
	c1.5,0,2.5,1,2.5,2.8c0,2.7,0,5.3,0,8.1h51.7c-1.4,3.9-2.7,7.7-4.1,11.4C89,36.2,83.2,49.4,75.4,61.7c-2.9,4.7-6.3,9-10.2,12.9
	C64.8,74.9,64.5,75.3,63.9,75.8z"/>
<path class="st0" d="M101.3,15.1v65h-36c0-0.2,0-0.3,0.1-0.4c7.2-6.4,12.5-14.2,17.2-22.4c7.5-13.1,13.1-27,18-41.3
	c0.1-0.3,0.2-0.7,0.4-1L101.3,15.1z"/>
</svg>
