<svg id="Layer_1" data-name="Layer 1" xmlns="http://www.w3.org/2000/svg" viewBox="0 0 500 500"><defs><style>.cls-1{fill:#444;}</style></defs><path class="cls-1" d="M253,58.36c6.47,3,8.55,8.1,8.34,15.07-.38,12.08-.09,24.18-.11,36.28,0,7.52-4.61,12.7-11.23,12.7s-11.21-5.19-11.22-12.71c0-12.09.27-24.19-.11-36.28-.22-7,1.87-12.08,8.34-15.06Z"/><path class="cls-1" d="M250,194.5c29.07,0,58.13.07,87.19-.07a16.42,16.42,0,0,1,12.63,5.15q31.88,32.16,64,64.08c6.38,6.38,6.41,12.45.05,18.81q-77.11,77.14-154.26,154.26c-6.54,6.55-12.55,6.54-19.06,0L86.24,282.51c-6.41-6.41-6.41-12.42,0-18.79q32.13-32.16,64.25-64.34a15.68,15.68,0,0,1,12-4.95C191.6,194.56,220.79,194.5,250,194.5ZM227,390.82c-10.22-35.78-20.29-71-30.32-106.15H120.86ZM378.78,284.58H303.34q-15.13,53-30.17,105.63ZM120.51,261.17c.53.49.62.63.7.63,25.31,0,50.61.1,75.91,0a5.07,5.07,0,0,0,3.37-2.23q13.5-20,26.78-40.08a17.83,17.83,0,0,0,1.09-2.34c-.82-.09-1.31-.18-1.79-.18-19.82,0-39.64-.06-59.46.08a7.17,7.17,0,0,0-4.42,2.06c-7.24,7-14.33,14.23-21.47,21.37Zm259.23.73a18.36,18.36,0,0,0-1.13-1.61c-13.92-13.93-27.82-27.89-41.83-41.73A6.65,6.65,0,0,0,332.5,217c-19.32-.1-38.64-.07-58-.05-.92,0-1.83.17-3.12.31.87,1.42,1.48,2.47,2.15,3.48,8.5,12.76,17.06,25.47,25.46,38.29a5.62,5.62,0,0,0,5.4,2.91c23.81-.1,47.62-.06,71.43-.06ZM280,284.62H220c9.91,34.66,19.73,69,29.54,103.35l.87-.09C260.26,353.57,270.06,319.27,280,284.62Zm-53.73-23h47.55L250,225.94Z"/><path class="cls-1" d="M384.31,104.67a49.21,49.21,0,0,1-2.39,5.79q-9.8,17.21-19.76,34.32c-3.63,6.23-10.28,8.2-15.92,4.86-5.48-3.25-7-9.9-3.57-16q10-17.52,20.18-34.94c2.92-5,7.94-7,13-5.47A12,12,0,0,1,384.31,104.67Z"/><path class="cls-1" d="M159.27,139c.08,5.65-3.13,10.07-7.78,11.59s-10,.1-12.53-4.19c-7.46-12.51-14.8-25.1-21.84-37.85-2.8-5.08-.44-11.4,4.47-14.27,5.09-3,11.76-1.75,14.85,3.39,7.42,12.39,14.53,25,21.67,37.52A14.06,14.06,0,0,1,159.27,139Z"/></svg>