<svg id="Layer_1" data-name="Layer 1" xmlns="http://www.w3.org/2000/svg" viewBox="0 0 500 500"><defs><style>.cls-1{fill:#444;}</style></defs><path class="cls-1" d="M432.58,250.68c-2.61,3-5.2,6-7.83,9-30.22,34.53-66.1,61.18-109.36,77.07C279.4,350,242.62,352.5,205.22,343a230.46,230.46,0,0,1-66.84-29.2A278.14,278.14,0,0,1,75.1,259c-2.44-2.87-4.72-5.89-7.68-9.59C76.3,239.86,84.72,230,94,221.09a264.08,264.08,0,0,1,69.94-49C206,152,249.61,145.41,295.35,157a229,229,0,0,1,66.83,29.21,279.29,279.29,0,0,1,63.51,55.07c2.27,2.68,4.59,5.31,6.89,8Zm-249.51-18c-9,40.24,15,71.7,42.76,82a69.17,69.17,0,0,0,81.89-26.28c18.08-27.25,15-62.31-7.89-86.42A66.16,66.16,0,0,0,258,181.3c-21-2.29-39.23,4.2-55,18.11-2.73-3.07-5.45-5.76-7.72-8.78-1.87-2.5-3.58-2.92-6.54-1.72-27.94,11.31-52.52,27.78-74.55,48.2-4.41,4.08-8.6,8.4-13.07,12.78,25.92,27.1,55.18,48.43,90,61.72C168.94,288.47,161,261.44,167.47,230Zm216,17.25c-21.13-24.25-73.06-59.66-89.88-61.25,17.17,17,26.14,37.53,26.08,61.57s-9.13,44.29-26.75,61.8C341.65,300.13,376.87,274.66,399.06,249.89Z"/><path class="cls-1" d="M206.49,236.58,241,242.35,218.6,217c12.76-13.81,38.39-18.5,57.86-4.84s25.54,40,13.81,60.37c-11.93,20.76-37.38,29.15-58.83,19.38C210.22,282.27,199.18,258.06,206.49,236.58Z"/></svg>