<svg xmlns="http://www.w3.org/2000/svg" xmlns:xlink="http://www.w3.org/1999/xlink" viewBox="0 0 500 500"><defs><style>.cls-1{isolation:isolate;}.cls-2{fill:url(#linear-gradient);}.cls-3{fill:url(#linear-gradient-2);}.cls-4{fill:url(#radial-gradient);}.cls-5{fill:url(#linear-gradient-3);}.cls-6,.cls-7,.cls-9{mix-blend-mode:multiply;}.cls-6{fill:url(#linear-gradient-4);}.cls-7{fill:url(#linear-gradient-5);}.cls-8{fill:url(#linear-gradient-6);}.cls-9{fill:url(#radial-gradient-2);}</style><linearGradient id="linear-gradient" x1="471.17" y1="185.18" x2="229.15" y2="442.17" gradientUnits="userSpaceOnUse"><stop offset="0" stop-color="#25c1e0"/><stop offset="1" stop-color="#1f9dd9"/></linearGradient><linearGradient id="linear-gradient-2" x1="227.16" y1="263.36" x2="468.75" y2="198.21" xlink:href="#linear-gradient"/><radialGradient id="radial-gradient" cx="288.39" cy="481.3" r="299.33" gradientUnits="userSpaceOnUse"><stop offset="0" stop-color="#22c1e0"/><stop offset="1" stop-color="#1d9ed9"/></radialGradient><linearGradient id="linear-gradient-3" x1="97.85" y1="185.39" x2="97.85" y2="508.17" xlink:href="#linear-gradient"/><linearGradient id="linear-gradient-4" x1="20.12" y1="380.51" x2="90.49" y2="324.86" gradientUnits="userSpaceOnUse"><stop offset="0" stop-color="#7f748e"/><stop offset="1" stop-color="#e3d8eb" stop-opacity="0"/></linearGradient><linearGradient id="linear-gradient-5" x1="55.13" y1="269.85" x2="140.56" y2="269.85" xlink:href="#linear-gradient-4"/><linearGradient id="linear-gradient-6" x1="89.92" y1="125.63" x2="93.05" y2="63.85" gradientTransform="translate(88.5 -39.45) rotate(45)" xlink:href="#linear-gradient"/><radialGradient id="radial-gradient-2" cx="63.67" cy="125.38" r="84.76" gradientTransform="translate(88.58 -39.37) rotate(45)" xlink:href="#linear-gradient-4"/></defs><g class="cls-1"><g id="Layer_1" data-name="Layer 1"><path class="cls-2" d="M306,212.78c43,3.84,72,35.91,72,84.78,0,52.14-33,85.16-80.82,85.16H245.06v14.77a52.14,52.14,0,0,0,52.14,52.14c73,0,130.86-50.1,144.59-119.84A147.71,147.71,0,0,0,306,212.78Z"/><path class="cls-3" d="M444.08,314.26c0-.11,0-.21.05-.32q.8-8.06.8-16.38c0-86-63.87-152.07-147.73-152.07H207.53a32,32,0,0,0-32,32V281.91a69.53,69.53,0,0,1,69.52-69.52H297.2c3,0,5.95.14,8.82.39a147.71,147.71,0,0,1,135.77,117h0Q443.29,322.17,444.08,314.26Z"/><path class="cls-4" d="M245.06,397.49V212.39a69.53,69.53,0,0,0-69.52,69.52V417.65A31.82,31.82,0,0,0,181,435.53a32.88,32.88,0,0,0,3.9,4.74,31.9,31.9,0,0,0,22.62,9.36H297.2A52.14,52.14,0,0,1,245.06,397.49Z"/><path class="cls-5" d="M55.13,139.26h0V346.88c0,56.75,38.25,102.75,85.43,102.75h0V242C140.56,185.27,102.31,139.26,55.13,139.26Z"/><path class="cls-6" d="M140.56,449.63C70.64,415.05,57.24,266.9,55.13,188.47V346.88C55.13,403.63,93.38,449.63,140.56,449.63Z"/><path class="cls-7" d="M55.13,139.26c69.92,34.59,83.32,182.73,85.43,261.17V242C140.56,185.27,102.31,139.26,55.13,139.26Z"/><circle class="cls-8" cx="91.87" cy="87.11" r="36.74" transform="translate(-34.69 90.48) rotate(-45)"/><circle class="cls-9" cx="91.81" cy="87.24" r="36.75" transform="translate(-34.8 90.47) rotate(-45)"/></g></g></svg>